<svg width="17" height="40" viewBox="0 0 17 40" fill="none" xmlns="http://www.w3.org/2000/svg">
<path d="M15.2242 23.6712C15.9417 22.937 16.4653 22.0449 16.7502 21.0713C17.0351 20.0977 17.0729 19.0716 16.8602 18.0807C16.7738 17.6836 16.5718 17.3189 16.2781 17.0302C15.9844 16.7414 15.6114 16.5406 15.2035 16.4519C15.9301 15.719 16.461 14.8245 16.7498 13.8465C17.0385 12.8686 17.0764 11.8368 16.8602 10.8414C16.7724 10.4361 16.5652 10.0645 16.2636 9.77165C15.9621 9.47885 15.5794 9.27758 15.1621 9.19238C13.7353 8.90599 12.251 9.08262 10.9376 9.69512C12.0189 8.5616 12.6265 7.07753 12.6419 5.53247C12.632 4.50398 12.3603 3.49383 11.8508 2.59209C11.3413 1.69035 10.61 0.925028 9.72208 0.364353C9.36872 0.130438 8.9518 0.00365793 8.52416 7.79647e-05C8.09652 -0.003502 7.67741 0.11628 7.31995 0.344243C6.42449 0.905287 5.68563 1.67246 5.16902 2.57758C4.65241 3.48269 4.37405 4.49773 4.35869 5.53247C4.37035 7.08089 4.9843 8.56781 6.07746 9.69512C4.76661 9.07421 3.27947 8.89723 1.85301 9.19238C1.43427 9.27444 1.04977 9.47468 0.747709 9.76801C0.445644 10.0613 0.239443 10.4347 0.154946 10.8414C-0.0639877 11.8352 -0.0293804 12.8659 0.255753 13.8438C0.540886 14.8217 1.0679 15.717 1.79089 16.4519C1.3855 16.5413 1.01539 16.7426 0.725136 17.0316C0.434882 17.3206 0.236867 17.685 0.154946 18.0807C-0.0613164 19.07 -0.0273301 20.0953 0.253989 21.069C0.535309 22.0427 1.05557 22.9356 1.77018 23.6712C1.36924 23.7721 1.00543 23.9801 0.719956 24.2715C0.434483 24.563 0.238756 24.9262 0.154946 25.3201C-0.0547653 26.2196 -0.051562 27.1535 0.164314 28.0516C0.38019 28.9497 0.80311 29.7885 1.40122 30.5048C1.99933 31.2212 2.75703 31.7964 3.61726 32.1871C4.47748 32.5779 5.4178 32.7739 6.36737 32.7606C6.7359 32.7661 7.10394 32.7324 7.4649 32.6601V38.9945C7.4649 39.2612 7.57399 39.5169 7.76817 39.7055C7.96234 39.8941 8.2257 40 8.50031 40C8.77491 40 9.03827 39.8941 9.23245 39.7055C9.42663 39.5169 9.53571 39.2612 9.53571 38.9945V32.6601C9.90352 32.7334 10.2785 32.7671 10.6539 32.7606C11.486 32.7672 12.3113 32.6143 13.0824 32.3106C13.8535 32.007 14.5553 31.5585 15.1476 30.991C15.8913 30.2553 16.437 29.3531 16.7368 28.3641C17.0365 27.3752 17.081 26.3298 16.8664 25.3201C16.7778 24.9241 16.5771 24.56 16.287 24.2687C15.9969 23.9774 15.6288 23.7704 15.2242 23.6712ZM7.29303 30.6692C6.58773 30.8163 5.856 30.7923 5.16253 30.5994C4.46905 30.4065 3.83522 30.0506 3.31707 29.5632C2.80308 29.0523 2.4353 28.4199 2.25007 27.7287C2.06485 27.0374 2.0686 26.3112 2.26096 25.6218C2.58214 25.5659 2.90795 25.539 3.23424 25.5413C3.79143 25.531 4.34497 25.6308 4.86117 25.8348C5.37737 26.0388 5.84545 26.3426 6.23691 26.7278C6.75627 27.2353 7.12767 27.8675 7.3132 28.56C7.49874 29.2524 7.49178 29.9803 7.29303 30.6692ZM7.29303 23.4298C6.58777 23.5783 5.85565 23.555 5.16191 23.3621C4.46818 23.1691 3.8344 22.8124 3.31707 22.3238C2.80325 21.817 2.43531 21.1881 2.25 20.5001C2.06468 19.812 2.06846 19.0887 2.26096 18.4025C2.57992 18.3304 2.9068 18.2966 3.23424 18.3019C3.79143 18.2916 4.34497 18.3915 4.86117 18.5954C5.37737 18.7994 5.84545 19.1032 6.23691 19.4884C6.75627 19.9959 7.12767 20.6282 7.3132 21.3206C7.49874 22.013 7.49178 22.7409 7.29303 23.4298ZM7.29303 16.1905C6.58777 16.3389 5.85565 16.3157 5.16191 16.1227C4.46818 15.9297 3.8344 15.573 3.31707 15.0844C2.80325 14.5776 2.43531 13.9488 2.25 13.2607C2.06468 12.5726 2.06846 11.8493 2.26096 11.1631C2.58156 11.1009 2.90734 11.0672 3.23424 11.0626C3.79143 11.0522 4.34497 11.1521 4.86117 11.356C5.37737 11.56 5.84545 11.8638 6.23691 12.249C6.75627 12.7565 7.12767 13.3888 7.3132 14.0812C7.49874 14.7736 7.49178 15.5015 7.29303 16.1905ZM8.45268 9.05162C7.84014 8.67525 7.3342 8.15616 6.98086 7.54155C6.62752 6.92695 6.43799 6.23632 6.4295 5.53247C6.43595 4.81602 6.63889 4.11418 7.01742 3.49918C7.39594 2.88418 7.93639 2.37824 8.58314 2.03343C9.18624 2.41194 9.68343 2.92958 10.0303 3.54014C10.3772 4.15071 10.563 4.83519 10.5711 5.53247C10.5616 6.24689 10.3614 6.94668 9.99008 7.5635C9.61878 8.18031 9.08906 8.69305 8.45268 9.05162ZM13.6918 29.5632C13.1622 30.0571 12.5109 30.4108 11.8003 30.5904C11.0896 30.7699 10.3434 30.7694 9.63304 30.5888C9.56904 30.291 9.53437 29.988 9.5295 29.6839V29.6437C9.52143 28.5467 9.96066 27.4912 10.7513 26.7077C11.5248 25.9702 12.5664 25.5584 13.6504 25.5614C14.0484 25.5598 14.445 25.6071 14.8308 25.7022C14.9785 26.3872 14.952 27.0969 14.7536 27.7697C14.5551 28.4425 14.1907 29.0581 13.6918 29.5632ZM13.6918 22.3238C13.165 22.8219 12.5138 23.1784 11.8022 23.3582C11.0906 23.538 10.3431 23.535 9.63304 23.3494C9.56904 23.0516 9.53437 22.7486 9.5295 22.4445V22.4043C9.52358 21.8638 9.62857 21.3276 9.83834 20.827C10.0481 20.3264 10.3585 19.8713 10.7513 19.4884C11.1304 19.1166 11.5821 18.8219 12.0799 18.6217C12.5777 18.4214 13.1116 18.3195 13.6504 18.3221C14.0477 18.3304 14.4432 18.3776 14.8308 18.4628C14.9785 19.1478 14.952 19.8575 14.7536 20.5303C14.5551 21.2031 14.1907 21.8187 13.6918 22.3238ZM13.6918 15.0844C13.1677 15.5865 12.5165 15.9456 11.804 16.1257C11.0915 16.3057 10.3427 16.3003 9.63304 16.11C9.56904 15.8123 9.53437 15.5092 9.5295 15.2051V15.1649C9.52358 14.6244 9.62857 14.0882 9.83834 13.5876C10.0481 13.087 10.3585 12.6319 10.7513 12.249C11.1344 11.8782 11.5902 11.5857 12.0917 11.3889C12.5932 11.192 13.1303 11.0947 13.6711 11.1028C14.0622 11.1024 14.4518 11.1497 14.8308 11.2435C14.9786 11.9254 14.9521 12.632 14.7535 13.3016C14.555 13.9712 14.1904 14.5834 13.6918 15.0844Z" fill="#111111"/>
</svg>
