<svg width="45" height="35" viewBox="0 0 45 35" fill="none" xmlns="http://www.w3.org/2000/svg">
<path d="M42.8906 14C42.3312 14 41.7947 14.2212 41.3991 14.6151C41.0035 15.0089 40.7812 15.543 40.7812 16.1V18.9H37.9688V17.5C37.9688 16.5717 37.5984 15.6815 36.939 15.0251C36.2797 14.3687 35.3855 14 34.4531 14H32.5195L26.5131 8.0255C26.1875 7.69938 25.8002 7.44082 25.3735 7.26478C24.9469 7.08875 24.4894 6.99875 24.0275 7H21.7969V4.2H24.6094C25.1688 4.2 25.7053 3.97875 26.1009 3.58492C26.4965 3.1911 26.7188 2.65695 26.7188 2.1C26.7188 1.54304 26.4965 1.0089 26.1009 0.615075C25.7053 0.221249 25.1688 1.17369e-08 24.6094 0H14.7656C14.2062 1.17369e-08 13.6697 0.221249 13.2741 0.615075C12.8785 1.0089 12.6562 1.54304 12.6562 2.1C12.6562 2.65695 12.8785 3.1911 13.2741 3.58492C13.6697 3.97875 14.2062 4.2 14.7656 4.2H17.5781V7H10.5469C9.61447 7 8.72026 7.36875 8.06095 8.02512C7.40165 8.6815 7.03125 9.57174 7.03125 10.5V18.9H4.21875V16.1C4.21875 15.543 3.99651 15.0089 3.60093 14.6151C3.20534 14.2212 2.66882 14 2.10938 14C1.54993 14 1.01341 14.2212 0.617822 14.6151C0.222237 15.0089 0 15.543 0 16.1L0 25.9C0 26.4569 0.222237 26.9911 0.617822 27.3849C1.01341 27.7787 1.54993 28 2.10938 28C2.66882 28 3.20534 27.7787 3.60093 27.3849C3.99651 26.9911 4.21875 26.4569 4.21875 25.9V23.1H7.03125V25.3207C7.03 25.7805 7.1204 26.236 7.29722 26.6608C7.47404 27.0855 7.73375 27.4711 8.06133 27.7952L14.2682 33.9745C14.5937 34.3006 14.9811 34.5592 15.4077 34.7352C15.8344 34.9112 16.2919 35.0012 16.7537 35H24.0275C24.4894 35.0012 24.9469 34.9112 25.3735 34.7352C25.8002 34.5592 26.1875 34.3006 26.5131 33.9745L32.5195 28H34.4531C34.9148 28 35.372 27.9095 35.7985 27.7336C36.225 27.5577 36.6126 27.2999 36.939 26.9749C37.2655 26.6499 37.5245 26.264 37.7011 25.8394C37.8778 25.4147 37.9688 24.9596 37.9688 24.5V23.1H40.7812V25.9C40.7812 26.4569 41.0035 26.9911 41.3991 27.3849C41.7947 27.7787 42.3312 28 42.8906 28C43.4501 28 43.9866 27.7787 44.3822 27.3849C44.7778 26.9911 45 26.4569 45 25.9V16.1C45 15.543 44.7778 15.0089 44.3822 14.6151C43.9866 14.2212 43.4501 14 42.8906 14ZM33.75 23.8H32.2225C31.7606 23.7987 31.3031 23.8887 30.8765 24.0648C30.4498 24.2408 30.0625 24.4994 29.7369 24.8255L23.7305 30.8H17.0508L11.25 25.025V11.2H23.7305L29.7316 17.1745C30.0578 17.5012 30.446 17.7602 30.8736 17.9362C31.3012 18.1123 31.7597 18.2019 32.2225 18.2H33.75V23.8Z" fill="#111111"/>
</svg>
