<svg width="21" height="21" viewBox="0 0 21 21" fill="none" xmlns="http://www.w3.org/2000/svg">
<path d="M10.5 21C9.0475 21 7.6825 20.7242 6.405 20.1726C5.1275 19.621 4.01625 18.8731 3.07125 17.9287C2.12625 16.9837 1.3783 15.8725 0.8274 14.595C0.2765 13.3175 0.0007 11.9525 0 10.5C0 9.0475 0.2758 7.6825 0.8274 6.405C1.379 5.1275 2.12695 4.01625 3.07125 3.07125C4.01625 2.12625 5.1275 1.3783 6.405 0.8274C7.6825 0.2765 9.0475 0.0007 10.5 0C11.9525 0 13.3175 0.2758 14.595 0.8274C15.8725 1.379 16.9837 2.12695 17.9287 3.07125C18.8738 4.01625 19.622 5.1275 20.1736 6.405C20.7252 7.6825 21.0007 9.0475 21 10.5C21 11.9525 20.7242 13.3175 20.1726 14.595C19.621 15.8725 18.8731 16.9837 17.9287 17.9287C16.9837 18.8738 15.8725 19.622 14.595 20.1736C13.3175 20.7252 11.9525 21.0007 10.5 21ZM10.5 18.9C11.445 18.9 12.355 18.747 13.23 18.4411C14.105 18.1352 14.91 17.6932 15.645 17.115L3.885 5.355C3.3075 6.09 2.86545 6.895 2.55885 7.77C2.25225 8.645 2.0993 9.555 2.1 10.5C2.1 12.845 2.91375 14.8312 4.54125 16.4587C6.16875 18.0862 8.155 18.9 10.5 18.9ZM17.115 15.645C17.6925 14.91 18.1345 14.105 18.4411 13.23C18.7477 12.355 18.9007 11.445 18.9 10.5C18.9 8.155 18.0862 6.16875 16.4587 4.54125C14.8312 2.91375 12.845 2.1 10.5 2.1C9.555 2.1 8.645 2.25295 7.77 2.55885C6.895 2.86475 6.09 3.3068 5.355 3.885L17.115 15.645Z" fill="#B6B6B6"/>
</svg>
