<svg width="33" height="35" viewBox="0 0 33 35" fill="none" xmlns="http://www.w3.org/2000/svg">
<path d="M32.7147 0L30.618 0.705289C27.0246 1.96519 23.1874 2.35182 19.4181 1.83375C15.4573 1.21347 11.4033 1.76466 7.74644 3.42066C5.80783 4.25368 4.10649 5.56282 2.79731 7.22888C1.48813 8.89494 0.612706 10.865 0.250735 12.9597C-0.117468 14.9741 -0.0798027 17.0427 0.361482 19.0421C0.802766 21.0415 1.63863 22.9307 2.81919 24.597C2.71436 24.9673 2.60952 25.3375 2.52216 25.7078C1.8125 28.7529 1.46063 31.8718 1.47381 35H4.96831C5.13255 32.4395 5.47705 29.894 5.99919 27.3829C8.42338 28.7039 11.142 29.3776 13.8968 29.3401C16.4661 29.3383 19.0089 28.8167 21.375 27.806C34.6716 22.0756 32.9243 3.01511 32.9243 2.22166L32.7147 0ZM20.0121 24.5617C15.4518 26.5189 10.0004 26.1839 6.94271 23.7683C7.45949 22.0245 8.16865 20.3448 9.05688 18.7607C9.74739 17.6206 10.562 16.562 11.4856 15.6045C12.4293 14.6369 13.4921 13.7954 14.6481 13.1008C17.0367 11.6594 19.6858 10.7124 22.4408 10.3149V8.55164C19.2709 8.4409 16.1205 9.09367 13.2503 10.4559C10.3156 11.901 7.82686 14.126 6.05161 16.8917C5.39319 17.948 4.80933 19.0498 4.30436 20.1889C3.49454 18.0984 3.26499 15.8245 3.6404 13.6121C3.88637 12.0632 4.51909 10.6029 5.47894 9.36901C6.4388 8.13509 7.69417 7.16811 9.12677 6.55919C11.2158 5.57383 13.4953 5.068 15.8013 5.07809C16.8846 5.07809 17.9504 5.18388 19.0686 5.27204C22.5707 5.72801 26.1264 5.5187 29.5521 4.65491C29.4298 9.52141 28.5562 20.8942 20.0121 24.5617Z" fill="#111111"/>
</svg>
