<svg width="30" height="28" viewBox="0 0 30 28" fill="none" xmlns="http://www.w3.org/2000/svg">
<path d="M15 28L12.825 26.0164C10.3 23.7021 8.2125 21.7057 6.5625 20.0272C4.9125 18.3488 3.6 16.8417 2.625 15.5061C1.65 14.1714 0.969 12.9446 0.582 11.8256C0.195 10.7066 0.001 9.56222 0 8.39237C0 6.00182 0.7875 4.00545 2.3625 2.40327C3.9375 0.80109 5.9 0 8.25 0C9.55 0 10.7875 0.279746 11.9625 0.839237C13.1375 1.39873 14.15 2.1871 15 3.20436C15.85 2.1871 16.8625 1.39873 18.0375 0.839237C19.2125 0.279746 20.45 0 21.75 0C24.1 0 26.0625 0.80109 27.6375 2.40327C29.2125 4.00545 30 6.00182 30 8.39237C30 9.56222 29.806 10.7066 29.418 11.8256C29.03 12.9446 28.349 14.1714 27.375 15.5061C26.4 16.8417 25.0875 18.3488 23.4375 20.0272C21.7875 21.7057 19.7 23.7021 17.175 26.0164L15 28ZM15 23.8801C17.4 21.693 19.375 19.8172 20.925 18.2526C22.475 16.6881 23.7 15.328 24.6 14.1724C25.5 13.0148 26.125 11.9843 26.475 11.081C26.825 10.1777 27 9.28145 27 8.39237C27 6.86648 26.5 5.59491 25.5 4.57766C24.5 3.5604 23.25 3.05177 21.75 3.05177C20.575 3.05177 19.4875 3.38848 18.4875 4.06191C17.4875 4.73533 16.8 5.5939 16.425 6.6376H13.575C13.2 5.59491 12.5125 4.73635 11.5125 4.06191C10.5125 3.38747 9.425 3.05075 8.25 3.05177C6.75 3.05177 5.5 3.5604 4.5 4.57766C3.5 5.59491 3 6.86648 3 8.39237C3 9.28247 3.175 10.1792 3.525 11.0825C3.875 11.9858 4.5 13.0158 5.4 14.1724C6.3 15.329 7.525 16.6896 9.075 18.2542C10.625 19.8187 12.6 21.694 15 23.8801Z" fill="#111111"/>
</svg>