<svg width="30" height="28" viewBox="0 0 30 28" fill="none" xmlns="http://www.w3.org/2000/svg">
<path d="M15 28L12.825 26.0164C10.3 23.7021 8.2125 21.7057 6.5625 20.0272C4.9125 18.3488 3.6 16.8417 2.625 15.5061C1.65 14.1714 0.969 12.9446 0.582 11.8256C0.195 10.7066 0.001 9.56222 0 8.39237C0 6.00182 0.7875 4.00545 2.3625 2.40327C3.9375 0.80109 5.9 0 8.25 0C9.55 0 10.7875 0.279746 11.9625 0.839237C13.1375 1.39873 14.15 2.1871 15 3.20436C15.85 2.1871 16.8625 1.39873 18.0375 0.839237C19.2125 0.279746 20.45 0 21.75 0C24.1 0 26.0625 0.80109 27.6375 2.40327C29.2125 4.00545 30 6.00182 30 8.39237C30 9.56222 29.806 10.7066 29.418 11.8256C29.03 12.9446 28.349 14.1714 27.375 15.5061C26.4 16.8417 25.0875 18.3488 23.4375 20.0272C21.7875 21.7057 19.7 23.7021 17.175 26.0164L15 28Z" fill="#CF0000"/>
</svg>
