<svg width="22" height="21" viewBox="0 0 22 21" fill="none" xmlns="http://www.w3.org/2000/svg">
<path d="M11 7.5C10.2044 7.5 9.44129 7.81607 8.87868 8.37868C8.31607 8.94129 8 9.70435 8 10.5C8 11.2956 8.31607 12.0587 8.87868 12.6213C9.44129 13.1839 10.2044 13.5 11 13.5C11.7956 13.5 12.5587 13.1839 13.1213 12.6213C13.6839 12.0587 14 11.2956 14 10.5C14 9.70435 13.6839 8.94129 13.1213 8.37868C12.5587 7.81607 11.7956 7.5 11 7.5ZM11 3C6 3 1.73 6.11 0 10.5C1.73 14.89 6 18 11 18C16 18 20.27 14.89 22 10.5C20.27 6.11 16 3 11 3ZM19.82 10.5C19.0117 12.1503 17.7567 13.5407 16.1975 14.5133C14.6383 15.4858 12.8376 16.0013 11 16.0013C9.1624 16.0013 7.36165 15.4858 5.80248 14.5133C4.24331 13.5407 2.98825 12.1503 2.18 10.5C2.98825 8.84969 4.24331 7.45925 5.80248 6.48675C7.36165 5.51424 9.1624 4.99868 11 4.99868C12.8376 4.99868 14.6383 5.51424 16.1975 6.48675C17.7567 7.45925 19.0117 8.84969 19.82 10.5Z" fill="#B6B6B6"/>
<path d="M20 1L1 20" stroke="#B6B6B6" stroke-width="2"/>
</svg>
