<svg width="35" height="35" viewBox="0 0 35 35" fill="none" xmlns="http://www.w3.org/2000/svg">
<path d="M10.9375 35C7.8912 35 5.30639 33.9383 3.18306 31.815C1.05972 29.6917 -0.00129511 27.1081 1.18636e-06 24.0644C1.18636e-06 22.6061 0.275464 21.2126 0.82639 19.8839C1.37732 18.5552 2.1713 17.3717 3.20833 16.3333L16.3333 3.20833C17.3704 2.1713 18.5532 1.37731 19.8819 0.826389C21.2107 0.275463 22.6042 0 24.0625 0C27.1088 0 29.6936 1.06102 31.8169 3.18306C33.9403 5.30509 35.0013 7.88991 35 10.9375C35 12.3958 34.7245 13.7894 34.1736 15.1181C33.6227 16.4468 32.8287 17.6296 31.7917 18.6667L18.6667 31.7917C17.6296 32.8287 16.4468 33.6227 15.1181 34.1736C13.7894 34.7245 12.3958 35 10.9375 35ZM23.8681 21.0972L29.0694 15.9444C29.7176 15.2963 30.2199 14.5347 30.5764 13.6597C30.9329 12.7847 31.1111 11.8773 31.1111 10.9375C31.1111 8.99306 30.4221 7.33185 29.0442 5.95389C27.6662 4.57593 26.0056 3.88759 24.0625 3.88889C23.1227 3.88889 22.2153 4.06713 21.3403 4.42361C20.4653 4.78009 19.7037 5.28241 19.0556 5.93056L13.9028 11.1319L23.8681 21.0972ZM10.9375 31.1111C11.8773 31.1111 12.7847 30.9329 13.6597 30.5764C14.5347 30.2199 15.2963 29.7176 15.9444 29.0694L21.0972 23.8681L11.1319 13.9028L5.93056 19.0556C5.28241 19.7037 4.78009 20.4653 4.42361 21.3403C4.06713 22.2153 3.88889 23.1227 3.88889 24.0625C3.88889 26.0069 4.57787 27.6681 5.95583 29.0461C7.3338 30.4241 8.9937 31.1124 10.9356 31.1111H10.9375Z" fill="#CF0000"/>
</svg>
