<svg width="28" height="28" viewBox="0 0 28 28" fill="none" xmlns="http://www.w3.org/2000/svg">
<path d="M5.6 16.8H16.8V14H5.6V16.8ZM5.6 12.6H22.4V9.8H5.6V12.6ZM5.6 8.4H22.4V5.6H5.6V8.4ZM0 28V2.8C0 2.03 0.2744 1.37107 0.8232 0.8232C1.372 0.275333 2.03093 0.000933333 2.8 0H25.2C25.97 0 26.6294 0.2744 27.1782 0.8232C27.727 1.372 28.0009 2.03093 28 2.8V19.6C28 20.37 27.7261 21.0294 27.1782 21.5782C26.6303 22.127 25.9709 22.4009 25.2 22.4H5.6L0 28ZM4.41 19.6H25.2V2.8H2.8V21.175L4.41 19.6Z" fill="#111111"/>
</svg>
