<svg width="8" height="16" viewBox="0 0 8 16" fill="none" xmlns="http://www.w3.org/2000/svg">
<path d="M6.90909 3.63636V12C6.90909 12.7715 6.6026 13.5115 6.05704 14.057C5.51148 14.6026 4.77154 14.9091 4 14.9091C3.22846 14.9091 2.48852 14.6026 1.94296 14.057C1.3974 13.5115 1.09091 12.7715 1.09091 12V2.90909C1.09091 2.42688 1.28247 1.96442 1.62344 1.62344C1.96442 1.28247 2.42688 1.09091 2.90909 1.09091C3.3913 1.09091 3.85376 1.28247 4.19474 1.62344C4.53572 1.96442 4.72727 2.42688 4.72727 2.90909V10.5455C4.72727 10.7383 4.65065 10.9233 4.51426 11.0597C4.37787 11.1961 4.19288 11.2727 4 11.2727C3.80712 11.2727 3.62213 11.1961 3.48574 11.0597C3.34935 10.9233 3.27273 10.7383 3.27273 10.5455V3.63636H2.18182V10.5455C2.18182 11.0277 2.37338 11.4901 2.71435 11.8311C3.05533 12.1721 3.51779 12.3636 4 12.3636C4.48221 12.3636 4.94467 12.1721 5.28565 11.8311C5.62662 11.4901 5.81818 11.0277 5.81818 10.5455V2.90909C5.81818 2.13755 5.51169 1.39761 4.96613 0.852053C4.42057 0.306493 3.68063 0 2.90909 0C2.13755 0 1.39761 0.306493 0.852053 0.852053C0.306493 1.39761 0 2.13755 0 2.90909V12C0 13.0609 0.421427 14.0783 1.17157 14.8284C1.92172 15.5786 2.93913 16 4 16C5.06087 16 6.07828 15.5786 6.82843 14.8284C7.57857 14.0783 8 13.0609 8 12V3.63636H6.90909Z" fill="#B6B6B6"/>
</svg>
