<svg width="24" height="26" viewBox="0 0 24 26" fill="none" xmlns="http://www.w3.org/2000/svg">
<path d="M20.9444 2.6H3.05555V23.4H20.9444V2.6ZM0.5 1.2896C0.5 0.5772 1.07117 0 1.7765 0H22.2209C22.5598 0 22.8848 0.136964 23.1244 0.380761C23.3641 0.624558 23.4987 0.955218 23.4987 1.3L23.5 24.6909C23.5011 24.8616 23.4693 25.0309 23.4061 25.1891C23.343 25.3473 23.2499 25.4912 23.132 25.6128C23.0142 25.7344 22.874 25.8311 22.7194 25.8976C22.5649 25.964 22.3989 25.9988 22.2311 26H1.76883C1.43326 25.9976 1.11208 25.861 0.874666 25.6197C0.637256 25.3784 0.502676 25.0518 0.5 24.7104V1.2896ZM11.0966 14.4586L16.5182 8.9427L18.325 10.7809L11.0966 18.135L6.12605 13.078L7.9341 11.2398L11.0966 14.4586Z" fill="#111111"/>
</svg>
