<svg width="31" height="39" viewBox="0 0 31 39" fill="none" xmlns="http://www.w3.org/2000/svg">
<path d="M15.4196 37.0001C18.3841 37.0001 20.7873 34.5893 20.7873 31.6155C20.7873 28.6417 18.3841 26.231 15.4196 26.231C12.455 26.231 10.0518 28.6417 10.0518 31.6155C10.0518 34.5893 12.455 37.0001 15.4196 37.0001Z" stroke="#111111" stroke-width="3" stroke-linecap="round" stroke-linejoin="round"/>
<path d="M15.4194 26.2305V2M15.4194 2L11.3936 6.03842M15.4194 2L19.4452 6.03842M12.816 26.9844C11.278 26.5233 9.85773 25.7335 8.65309 24.6692C7.44846 23.6049 6.48802 22.2913 5.83789 20.819" stroke="#111111" stroke-width="3" stroke-linecap="round" stroke-linejoin="round"/>
<path d="M5.35487 20.8459C7.20771 20.8459 8.70974 19.3392 8.70974 17.4806C8.70974 15.622 7.20771 14.1152 5.35487 14.1152C3.50203 14.1152 2 15.622 2 17.4806C2 19.3392 3.50203 20.8459 5.35487 20.8459Z" stroke="#111111" stroke-width="3" stroke-linecap="round" stroke-linejoin="round"/>
<path d="M15.5 23.8068C17.5602 23.1822 19.4627 22.121 21.0786 20.6951C22.6946 19.2691 23.9865 17.5116 24.8668 15.5415" stroke="#111111" stroke-width="3" stroke-linecap="round" stroke-linejoin="round"/>
<path d="M25.6449 15.6496C27.4978 15.6496 28.9998 14.1429 28.9998 12.2843C28.9998 10.4257 27.4978 8.91895 25.6449 8.91895C23.7921 8.91895 22.29 10.4257 22.29 12.2843C22.29 14.1429 23.7921 15.6496 25.6449 15.6496Z" stroke="#111111" stroke-width="3" stroke-linecap="round" stroke-linejoin="round"/>
</svg>
