<svg width="14" height="15" viewBox="0 0 14 15" fill="none" xmlns="http://www.w3.org/2000/svg">
<g clip-path="url(#clip0_98_2583)">
<path d="M4.87744 0.960787C3.47862 1.44605 2.27228 2.36709 1.43561 3.58863C0.598948 4.81017 0.176053 6.26782 0.229046 7.74747C0.282039 9.22712 0.808128 10.6508 1.73004 11.8093C2.65195 12.9679 3.92108 13.8003 5.35103 14.1842C6.51032 14.4834 7.72492 14.4965 8.89041 14.2225C9.94622 13.9853 10.9224 13.4781 11.7232 12.7503C12.5567 11.9698 13.1618 10.9768 13.4732 9.87813C13.8116 8.68337 13.8719 7.42697 13.6493 6.20532H7.13931V8.90579H10.9095C10.8341 9.33649 10.6727 9.74757 10.4347 10.1144C10.1968 10.4813 9.88731 10.7963 9.52478 11.0408C9.06446 11.3454 8.54547 11.5504 8.00119 11.6424C7.45535 11.7439 6.89546 11.7439 6.34962 11.6424C5.79635 11.5281 5.27298 11.2997 4.81291 10.9719C4.07369 10.4486 3.51865 9.70524 3.22697 8.84782C2.93044 7.97433 2.93044 7.0274 3.22697 6.15391C3.43459 5.54165 3.77782 4.98419 4.23103 4.52313C4.74968 3.98582 5.4063 3.60175 6.12886 3.41306C6.85141 3.22436 7.61199 3.23834 8.32712 3.45344C8.88581 3.62486 9.39669 3.9245 9.819 4.32844C10.2441 3.90553 10.6685 3.48152 11.0921 3.05641C11.3109 2.82782 11.5493 2.61016 11.7648 2.3761C11.1201 1.7762 10.3633 1.30937 9.53791 1.00235C8.03477 0.456557 6.39007 0.44189 4.87744 0.960787Z" fill="white"/>
<path d="M4.87789 0.960342C6.3904 0.441092 8.0351 0.455373 9.53836 1.00081C10.3639 1.30992 11.1203 1.77899 11.7641 2.38112C11.5454 2.61519 11.3146 2.83394 11.0915 3.06144C10.6671 3.48508 10.2431 3.90727 9.81945 4.328C9.39715 3.92405 8.88626 3.62441 8.32758 3.453C7.61268 3.23714 6.85213 3.22236 6.12938 3.41028C5.40663 3.5982 4.74961 3.98157 4.23039 4.51831C3.77718 4.97937 3.43395 5.53683 3.22633 6.14909L0.958984 4.39362C1.77056 2.78424 3.17574 1.55318 4.87789 0.960342Z" fill="#E33629"/>
<path d="M0.356325 6.13262C0.478103 5.52862 0.680431 4.9437 0.957888 4.39355L3.22523 6.1534C2.9287 7.02689 2.9287 7.97382 3.22523 8.84731C2.46981 9.43064 1.71403 10.0169 0.957888 10.6061C0.263521 9.2239 0.0517513 7.6491 0.356325 6.13262Z" fill="#F8BD00"/>
<path d="M7.13916 6.2041H13.6492C13.8717 7.42575 13.8115 8.68216 13.4731 9.87691C13.1616 10.9756 12.5566 11.9685 11.7231 12.7491C10.9913 12.1782 10.2563 11.6116 9.52463 11.0407C9.8874 10.796 10.197 10.4805 10.435 10.1133C10.6729 9.74607 10.8342 9.33457 10.9093 8.90348H7.13916C7.13806 8.00441 7.13916 7.10426 7.13916 6.2041Z" fill="#587DBD"/>
<path d="M0.957031 10.6064C1.71318 10.0231 2.46896 9.43682 3.22438 8.84766C3.51663 9.70537 4.07247 10.4488 4.8125 10.9717C5.27401 11.2981 5.79851 11.5245 6.3525 11.6367C6.89834 11.7382 7.45822 11.7382 8.00406 11.6367C8.54834 11.5447 9.06734 11.3398 9.52766 11.0352C10.2594 11.6061 10.9944 12.1727 11.7261 12.7436C10.9254 13.4717 9.94921 13.9794 8.89328 14.2169C7.72779 14.4909 6.5132 14.4777 5.35391 14.1786C4.43702 13.9338 3.58058 13.5022 2.83828 12.9109C2.05267 12.2871 1.41098 11.501 0.957031 10.6064Z" fill="#319F43"/>
</g>
<defs>
<clipPath id="clip0_98_2583">
<rect width="14" height="14" fill="white" transform="translate(0 0.5)"/>
</clipPath>
</defs>
</svg>
