<svg width="23" height="22" viewBox="0 0 23 22" fill="none" xmlns="http://www.w3.org/2000/svg">
<path d="M11.5 0C12.9587 0 14.3576 0.579462 15.3891 1.61091C16.4205 2.64236 17 4.04131 17 5.5C17 6.95869 16.4205 8.35764 15.3891 9.38909C14.3576 10.4205 12.9587 11 11.5 11C10.0413 11 8.64236 10.4205 7.61091 9.38909C6.57946 8.35764 6 6.95869 6 5.5C6 4.04131 6.57946 2.64236 7.61091 1.61091C8.64236 0.579462 10.0413 0 11.5 0ZM11.5 2.75C10.7707 2.75 10.0712 3.03973 9.55546 3.55546C9.03973 4.07118 8.75 4.77065 8.75 5.5C8.75 6.22935 9.03973 6.92882 9.55546 7.44454C10.0712 7.96027 10.7707 8.25 11.5 8.25C12.2293 8.25 12.9288 7.96027 13.4445 7.44454C13.9603 6.92882 14.25 6.22935 14.25 5.5C14.25 4.77065 13.9603 4.07118 13.4445 3.55546C12.9288 3.03973 12.2293 2.75 11.5 2.75ZM11.5 12.375C15.1713 12.375 22.5 14.2037 22.5 17.875V22H0.5V17.875C0.5 14.2037 7.82875 12.375 11.5 12.375ZM11.5 14.9875C7.41625 14.9875 3.1125 16.995 3.1125 17.875V19.3875H19.8875V17.875C19.8875 16.995 15.5837 14.9875 11.5 14.9875Z" fill="#111111"/>
</svg>
