<svg width="39" height="35" viewBox="0 0 39 35" fill="none" xmlns="http://www.w3.org/2000/svg">
<path d="M31.2 23.3333H27.3V27.2222H31.2M31.2 15.5556H27.3V19.4444H31.2M35.1 31.1111H19.5V27.2222H23.4V23.3333H19.5V19.4444H23.4V15.5556H19.5V11.6667H35.1M15.6 7.77778H11.7V3.88889H15.6M15.6 15.5556H11.7V11.6667H15.6M15.6 23.3333H11.7V19.4444H15.6M15.6 31.1111H11.7V27.2222H15.6M7.8 7.77778H3.9V3.88889H7.8M7.8 15.5556H3.9V11.6667H7.8M7.8 23.3333H3.9V19.4444H7.8M7.8 31.1111H3.9V27.2222H7.8M19.5 7.77778V0H0V35H39V7.77778H19.5Z" fill="#111111"/>
</svg>
