<svg width="13" height="13" viewBox="0 0 13 13" fill="none" xmlns="http://www.w3.org/2000/svg">
<path d="M12.3464 6.50188C12.1741 6.50188 12.0088 6.57035 11.8869 6.69221C11.7651 6.81407 11.6966 6.97935 11.6966 7.1517V11.0506C11.6966 11.2229 11.6281 11.3882 11.5063 11.5101C11.3844 11.6319 11.2191 11.7004 11.0468 11.7004H1.94943C1.77709 11.7004 1.61181 11.6319 1.48995 11.5101C1.36809 11.3882 1.29962 11.2229 1.29962 11.0506V1.9532C1.29962 1.78086 1.36809 1.61558 1.48995 1.49372C1.61181 1.37185 1.77709 1.30339 1.94943 1.30339H5.8483C6.02065 1.30339 6.18593 1.23493 6.30779 1.11307C6.42965 0.991202 6.49812 0.82592 6.49812 0.653579C6.49812 0.481239 6.42965 0.315957 6.30779 0.194093C6.18593 0.0722299 6.02065 0.00376783 5.8483 0.00376783H1.94943C1.43241 0.00376783 0.936566 0.209154 0.570976 0.574744C0.205386 0.940334 0 1.43618 0 1.9532V11.0506C0 11.5676 0.205386 12.0634 0.570976 12.429C0.936566 12.7946 1.43241 13 1.94943 13H11.0468C11.5638 13 12.0597 12.7946 12.4253 12.429C12.7908 12.0634 12.9962 11.5676 12.9962 11.0506V7.1517C12.9962 6.97935 12.9278 6.81407 12.8059 6.69221C12.684 6.57035 12.5188 6.50188 12.3464 6.50188ZM2.59925 6.99574V9.75094C2.59925 9.92328 2.66771 10.0886 2.78957 10.2104C2.91144 10.3323 3.07672 10.4008 3.24906 10.4008H6.00426C6.08978 10.4012 6.17455 10.3849 6.25373 10.3525C6.3329 10.3202 6.40491 10.2725 6.46563 10.2123L10.9623 5.70911L12.8078 3.90264C12.8687 3.84223 12.917 3.77036 12.95 3.69117C12.983 3.61199 13 3.52705 13 3.44127C13 3.35549 12.983 3.27055 12.95 3.19137C12.917 3.11218 12.8687 3.04031 12.8078 2.97991L10.0526 0.192213C9.99218 0.131307 9.92031 0.0829651 9.84112 0.049975C9.76194 0.0169849 9.677 0 9.59122 0C9.50544 0 9.4205 0.0169849 9.34132 0.049975C9.26213 0.0829651 9.19026 0.131307 9.12985 0.192213L7.29738 2.03118L2.78769 6.53437C2.72747 6.59509 2.67982 6.6671 2.64748 6.74627C2.61514 6.82545 2.59875 6.91022 2.59925 6.99574ZM9.59122 1.56981L11.4302 3.40878L10.5075 4.33151L8.66849 2.49255L9.59122 1.56981ZM3.89887 7.26216L7.75225 3.40878L9.59122 5.24775L5.73784 9.10113H3.89887V7.26216Z" fill="#B6B6B6"/>
</svg>
