<svg width="27" height="22" viewBox="0 0 27 22" fill="none" xmlns="http://www.w3.org/2000/svg">
<path d="M13.5 22L11.615 20.4414C9.42667 18.6231 7.6175 17.0545 6.1875 15.7357C4.7575 14.4169 3.62 13.2328 2.775 12.1833C1.93 11.1347 1.3398 10.1708 1.0044 9.29155C0.669 8.41235 0.500867 7.51317 0.5 6.594C0.5 4.71571 1.1825 3.14714 2.5475 1.88828C3.9125 0.629428 5.61333 0 7.65 0C8.77667 0 9.84917 0.2198 10.8675 0.6594C11.8858 1.099 12.7633 1.71844 13.5 2.51771C14.2367 1.71844 15.1142 1.099 16.1325 0.6594C17.1508 0.2198 18.2233 0 19.35 0C21.3867 0 23.0875 0.629428 24.4525 1.88828C25.8175 3.14714 26.5 4.71571 26.5 6.594C26.5 7.51317 26.3319 8.41235 25.9956 9.29155C25.6593 10.1708 25.0691 11.1347 24.225 12.1833C23.38 13.2328 22.2425 14.4169 20.8125 15.7357C19.3825 17.0545 17.5733 18.6231 15.385 20.4414L13.5 22ZM13.5 18.7629C15.58 17.0445 17.2917 15.5706 18.635 14.3414C19.9783 13.1121 21.04 12.0435 21.82 11.1355C22.6 10.2259 23.1417 9.41624 23.445 8.70648C23.7483 7.99673 23.9 7.29257 23.9 6.594C23.9 5.39509 23.4667 4.396 22.6 3.59673C21.7333 2.79746 20.65 2.39782 19.35 2.39782C18.3317 2.39782 17.3892 2.66238 16.5225 3.1915C15.6558 3.72062 15.06 4.3952 14.735 5.21526H12.265C11.94 4.396 11.3442 3.72142 10.4775 3.1915C9.61083 2.66158 8.66833 2.39702 7.65 2.39782C6.35 2.39782 5.26667 2.79746 4.4 3.59673C3.53333 4.396 3.1 5.39509 3.1 6.594C3.1 7.29337 3.25167 7.99793 3.555 8.70768C3.85833 9.41744 4.4 10.2267 5.18 11.1355C5.96 12.0442 7.02167 13.1133 8.365 14.3426C9.70833 15.5718 11.42 17.0453 13.5 18.7629Z" fill="#111111"/>
</svg>
